<?xml version="1.0"?>
<svg xmlns="http://www.w3.org/2000/svg" xmlns:xlink="http://www.w3.org/1999/xlink" version="1.1" id="Layer_1" x="0px" y="0px" viewBox="0 0 512 512" style="enable-background:new 0 0 512 512;" xml:space="preserve" width="512px" height="512px"><g><g>
	<g>
		<g>
			<rect x="76.8" y="200.533" width="281.6" height="170.667" data-original="#000000" class="active-path" data-old_color="#000000" fill="#1D1F22"/>
			<path d="M418.133,405.333H409.6v-230.4c0-14.114-11.486-25.6-25.6-25.6H51.2c-14.114,0-25.6,11.486-25.6,25.6v230.4h-8.533     C7.654,405.333,0,412.988,0,422.4V448c0,9.412,7.654,17.067,17.067,17.067h401.067c9.412,0,17.067-7.654,17.067-17.067v-25.6     C435.2,412.988,427.546,405.333,418.133,405.333z M59.733,192c0-4.71,3.823-8.533,8.533-8.533h298.667     c4.71,0,8.533,3.823,8.533,8.533v187.733c0,4.71-3.823,8.533-8.533,8.533H68.267c-4.71,0-8.533-3.823-8.533-8.533V192z      M418.133,448H17.067v-25.6h17.067h141.534l6.033,6.033c1.596,1.604,3.772,2.5,6.033,2.5h59.733c2.261,0,4.437-0.896,6.033-2.5     l6.033-6.033h141.534h17.067V448z" data-original="#000000" class="active-path" data-old_color="#000000" fill="#1D1F22"/>
			<path d="M409.6,46.933c-4.71,0-8.533,3.823-8.533,8.533c0,4.71,3.823,8.533,8.533,8.533c47.053,0,85.333,38.281,85.333,85.333     c0,4.71,3.823,8.533,8.533,8.533s8.533-3.823,8.533-8.533C512,92.868,466.065,46.933,409.6,46.933z" data-original="#000000" class="active-path" data-old_color="#000000" fill="#1D1F22"/>
			<path d="M409.6,81.067c-4.71,0-8.533,3.823-8.533,8.533s3.823,8.533,8.533,8.533c28.237,0,51.2,22.963,51.2,51.2     c0,4.71,3.823,8.533,8.533,8.533s8.533-3.823,8.533-8.533C477.867,111.693,447.241,81.067,409.6,81.067z" data-original="#000000" class="active-path" data-old_color="#000000" fill="#1D1F22"/>
			<path d="M409.6,115.2c-4.71,0-8.533,3.823-8.533,8.533s3.823,8.533,8.533,8.533c9.412,0,17.067,7.654,17.067,17.067     c0,4.71,3.823,8.533,8.533,8.533s8.533-3.823,8.533-8.533C443.733,130.509,428.425,115.2,409.6,115.2z" data-original="#000000" class="active-path" data-old_color="#000000" fill="#1D1F22"/>
		</g>
	</g>
</g></g> </svg>
